<svg width="1654" height="382" viewBox="0 0 1654 382" fill="none"
    xmlns="http://www.w3.org/2000/svg">
    <path fill-rule="evenodd" clip-rule="evenodd"
        d="M682.61 371.9C696.868 364.771 708.75 354.672 718.255 341.008L724.196 376.653H772.317V4.15857H710.532V137.235C692.115 116.442 665.975 106.342 633.3 106.342C617.854 106.342 603.596 108.718 591.12 114.065C578.05 120.006 567.356 128.323 557.851 139.017C548.345 150.305 541.216 163.375 535.869 179.415C530.523 195.456 527.552 213.872 527.552 235.26V252.488C527.552 273.876 530.523 292.886 535.275 308.927C540.622 324.967 547.751 338.631 557.257 349.325C566.762 360.613 577.456 368.336 590.526 373.683C603.002 379.03 617.26 382 633.3 382C651.717 382 667.757 378.435 682.61 371.9ZM608.348 306.551C598.249 295.263 592.902 276.846 592.902 252.488V235.26C592.902 209.714 597.655 191.297 608.348 180.603C618.448 169.316 632.706 163.375 651.717 163.375C668.946 163.375 682.61 169.91 693.897 181.792C705.185 194.267 710.532 212.09 710.532 235.26V256.053C709.938 278.628 703.997 295.263 693.303 307.145C682.016 318.432 668.352 324.373 651.717 324.373C633.894 324.373 619.042 318.432 608.348 306.551ZM973.12 374.871C987.378 370.712 999.26 364.771 1009.36 356.454C1019.46 348.731 1027.18 339.82 1033.12 329.126C1039.06 318.432 1043.82 307.145 1046.79 294.669H982.625C979.655 303.58 974.308 311.303 965.397 317.838C956.485 324.373 942.821 327.344 924.405 327.344C904.8 327.344 889.947 322.591 879.254 313.085C868.56 302.986 862.619 286.946 860.837 264.37H1049.16V244.171C1049.16 199.614 1037.88 165.751 1015.89 141.988C993.319 118.224 963.02 106.342 924.405 106.342C904.8 106.342 887.571 108.718 872.719 114.659C857.272 120.6 844.202 129.512 832.915 140.205C822.221 151.493 813.904 165.157 807.963 181.197C802.022 197.238 799.051 215.061 799.051 235.26V252.488C799.051 272.687 802.022 290.51 807.963 306.551C813.904 322.591 822.221 336.255 832.915 347.543C844.202 358.83 857.272 367.148 872.719 373.089C887.571 379.03 904.8 382 924.405 382C942.821 382 958.862 379.624 973.12 374.871ZM967.179 172.88C977.279 181.792 983.814 196.05 986.19 215.655H862.025C864.995 196.644 871.53 182.386 881.63 173.474C891.73 164.563 905.988 160.404 924.405 160.404C942.227 160.404 956.485 164.563 967.179 172.88ZM1235.71 376.653H1309.97L1213.13 226.942L1299.28 111.095H1226.8L1137.68 231.101V4.15857H1075.9V376.653H1137.68V319.62L1172.73 274.47L1235.71 376.653Z"
        fill="#025D86" />
    <path fill-rule="evenodd" clip-rule="evenodd"
        d="M1434.73 371.306C1449.58 364.177 1461.46 353.484 1470.97 340.414L1476.91 376.653H1525.62V196.05C1525.62 168.722 1516.71 146.74 1498.89 130.7C1481.07 114.065 1454.33 106.342 1419.28 106.342C1381.85 106.342 1353.93 114.065 1336.11 129.512C1318.29 144.364 1308.78 163.969 1307.59 187.733H1374.13C1375.91 178.821 1380.07 171.098 1386.61 165.751C1393.14 159.81 1404.43 157.434 1419.28 157.434C1434.73 157.434 1446.61 160.404 1453.14 166.939C1460.27 173.474 1463.84 182.98 1463.84 196.05V212.09H1419.28C1396.71 212.09 1377.7 213.872 1362.25 218.031C1346.8 222.19 1334.33 228.131 1324.82 235.854C1314.72 242.983 1307.59 252.488 1303.43 263.776C1298.68 275.064 1296.9 287.54 1296.9 301.204C1296.9 326.75 1304.03 346.355 1318.88 360.613C1333.73 374.871 1355.71 382 1384.23 382C1403.24 382 1419.88 378.435 1434.73 371.306ZM1370.57 321.997C1364.63 316.65 1361.65 308.927 1361.65 299.421C1361.65 286.946 1365.81 277.44 1374.13 270.311C1383.04 263.182 1397.89 259.617 1419.28 259.617H1463.84V267.935C1463.84 276.252 1462.06 284.569 1458.49 291.698C1454.93 299.421 1450.17 305.956 1444.23 311.897C1438.29 317.838 1430.57 321.997 1422.25 325.561C1413.93 329.126 1405.02 330.908 1394.92 330.908C1384.23 330.908 1376.51 327.938 1370.57 321.997Z"
        fill="#025D86" />
    <path d="M1646.82 0H1574.34V275.064H1646.82V0Z" fill="#025D86" />
    <path fill-rule="evenodd" clip-rule="evenodd"
        d="M1610.58 381.406C1634.34 381.406 1653.35 362.395 1653.35 338.631C1653.35 315.462 1634.34 296.451 1610.58 296.451C1587.41 296.451 1567.8 315.462 1567.8 338.631C1567.8 362.395 1587.41 381.406 1610.58 381.406Z"
        fill="#FAA21F" />
    <path fill-rule="evenodd" clip-rule="evenodd"
        d="M174.068 374.871C188.327 370.712 200.208 364.771 210.308 356.454C220.408 348.731 228.131 339.82 234.072 329.126C240.012 318.432 244.765 307.145 247.736 294.669H183.574C180.603 303.58 175.257 311.303 166.345 317.838C157.434 324.373 143.77 327.344 124.759 327.344C105.748 327.344 90.8958 322.591 80.2022 313.086C69.5086 302.986 63.5677 286.946 61.7854 264.37H250.112V244.171C250.112 199.614 238.824 165.751 216.843 141.988C194.268 118.224 163.969 106.342 124.759 106.342C105.748 106.342 88.5195 108.719 73.6672 114.659C58.2208 120.6 45.1509 129.512 33.8631 140.205C23.1695 151.493 14.8523 165.157 8.91135 181.198C2.97045 197.238 0 215.061 0 235.26V252.488C0 272.687 2.97045 290.51 8.91135 306.551C14.8523 322.591 23.1695 336.255 33.8631 347.543C45.1509 358.83 58.2208 367.148 73.6672 373.089C88.5195 379.03 105.748 382 124.759 382C143.77 382 159.81 379.624 174.068 374.871ZM168.128 172.88C178.227 181.792 184.762 196.05 187.138 215.655H62.9736C65.3499 196.644 72.479 182.386 82.5786 173.474C92.6781 164.563 106.936 160.404 124.759 160.404C143.176 160.404 157.434 164.563 168.128 172.88Z"
        fill="#00B8F4" />
    <path fill-rule="evenodd" clip-rule="evenodd"
        d="M363.583 380.812V348.137L393.288 349.325L363.583 380.812Z" fill="#989898" />
    <path fill-rule="evenodd" clip-rule="evenodd"
        d="M424.18 106.342C453.885 112.877 480.025 127.729 500.818 148.523V257.835C500.818 272.093 498.442 288.728 494.283 307.739C491.313 319.027 485.372 330.314 477.649 341.602C469.331 352.296 461.014 360.613 450.915 366.554C441.409 372.495 429.527 376.653 415.269 378.436C405.764 379.624 394.476 380.812 382 380.812H363.583L393.288 349.325V310.709C402.199 307.145 408.14 304.768 412.893 299.422C420.616 291.104 424.18 278.034 424.18 261.994V106.342Z"
        fill="#025D86" />
    <path fill-rule="evenodd" clip-rule="evenodd"
        d="M273.876 147.928C295.263 127.729 321.403 112.877 351.107 106.342V231.101C351.107 247.142 354.672 259.617 362.395 268.529C367.148 274.47 377.841 279.222 393.288 282.193V349.325C380.812 349.325 369.524 348.731 360.019 347.543C345.76 345.76 333.285 341.602 323.779 335.661C314.274 329.72 305.362 321.403 297.639 310.709C289.322 299.421 283.975 288.134 281.005 276.846C276.252 257.835 273.876 241.201 273.876 226.942V147.928Z"
        fill="#00B8F4" />
</svg>
